<?xml version="1.0" encoding="UTF-8" ?>
<!DOCTYPE svg PUBLIC "-//W3C//DTD SVG 1.1//EN" "http://www.w3.org/Graphics/SVG/1.1/DTD/svg11.dtd">
<svg width="1200pt" height="1200pt" viewBox="0 0 1200 1200" version="1.1" xmlns="http://www.w3.org/2000/svg">
<g id="#fafafaff">
<path fill="#fafafa" opacity="1.00" d=" M 548.56 247.42 C 563.71 241.70 579.66 237.12 596.00 237.52 C 602.87 237.61 609.80 237.17 616.62 238.27 C 634.16 240.64 651.70 245.47 666.87 254.78 C 669.22 256.81 671.50 258.93 673.93 260.86 C 671.57 260.33 668.96 258.62 666.60 259.60 C 664.83 264.18 666.89 269.20 666.75 273.96 C 666.70 286.64 667.22 299.37 665.83 312.01 C 663.40 348.15 651.98 384.16 630.55 413.58 C 620.37 427.90 607.07 439.73 592.59 449.56 C 574.37 461.47 554.82 471.72 533.78 477.61 C 527.43 479.41 520.72 479.99 514.63 482.63 C 512.43 483.36 511.68 485.65 510.79 487.55 C 509.82 487.87 508.86 488.21 507.91 488.55 C 499.41 482.65 493.02 474.39 486.56 466.44 C 477.49 453.91 468.87 440.60 465.10 425.40 C 463.26 420.41 461.00 415.47 461.35 410.00 C 458.33 394.58 457.31 378.66 459.36 363.04 C 459.14 353.68 462.04 344.66 464.55 335.75 C 473.65 307.53 491.97 282.36 515.98 264.97 C 526.20 258.04 536.96 251.76 548.56 247.42 Z" />
<path fill="#fafafa" opacity="1.00" d=" M 266.73 518.65 C 290.18 524.90 313.54 531.49 337.01 537.69 C 346.74 540.02 356.43 542.60 365.90 545.85 C 373.81 548.48 381.49 551.76 389.41 554.38 C 398.13 557.29 406.88 560.11 415.53 563.23 C 423.91 566.23 431.50 571.06 438.55 576.42 C 442.30 579.24 445.48 582.75 449.28 585.51 C 451.62 587.22 454.05 588.82 456.19 590.80 C 493.63 628.03 530.80 665.53 568.19 702.81 C 575.97 712.63 585.33 721.00 593.94 730.06 C 595.81 731.77 597.47 734.20 600.11 734.71 C 603.35 734.63 605.27 731.31 607.73 729.60 C 613.27 725.46 616.72 719.37 621.57 714.58 C 639.24 696.91 656.90 679.23 674.47 661.47 C 681.58 654.95 688.80 648.52 695.19 641.27 C 700.29 635.36 706.00 630.03 711.48 624.48 C 716.50 619.49 720.87 613.86 726.26 609.24 C 735.36 601.36 743.04 591.97 752.53 584.52 C 760.65 577.62 769.88 572.20 779.20 567.10 C 792.29 560.91 806.11 556.45 819.66 551.38 C 836.06 545.09 853.00 540.41 869.89 535.64 C 886.36 531.64 902.77 527.42 919.11 522.89 C 924.17 521.43 929.05 519.33 934.27 518.40 C 934.83 530.92 934.33 543.47 934.48 556.00 C 934.50 671.00 934.43 786.00 934.49 901.00 C 934.27 905.51 935.27 910.31 933.63 914.63 C 928.60 916.25 923.19 915.20 918.00 915.43 C 878.32 915.40 838.64 915.47 798.96 915.45 C 796.16 916.02 794.34 913.65 794.60 911.02 C 794.38 856.96 794.86 802.89 794.63 748.83 C 792.09 750.50 789.66 752.35 787.60 754.60 C 781.01 761.67 773.94 768.27 767.16 775.16 C 749.52 792.85 731.99 810.65 714.26 828.25 C 704.89 835.79 696.50 844.46 688.33 853.26 C 682.77 860.05 675.68 865.31 669.60 871.59 C 655.30 885.93 640.72 900.00 626.83 914.73 C 625.10 916.61 622.31 916.20 620.02 916.35 C 604.34 916.08 588.65 916.39 572.97 916.16 C 566.50 908.30 558.77 901.60 551.80 894.20 C 528.51 870.83 505.14 847.53 481.84 824.16 C 472.02 814.03 461.50 804.54 452.18 793.93 C 448.74 788.16 443.63 783.76 439.00 779.00 C 430.51 770.48 421.97 762.02 413.49 753.49 C 411.18 751.14 408.55 749.15 405.79 747.39 C 404.00 752.75 404.68 758.45 404.66 764.00 C 404.65 814.23 404.69 864.47 404.65 914.71 C 358.69 914.68 312.72 914.49 266.75 914.80 C 266.34 908.54 266.47 902.26 266.48 896.00 C 266.47 788.00 266.46 680.00 266.50 572.00 C 266.66 554.22 266.18 536.42 266.73 518.65 Z" />
</g>
<g id="#17223cff">
<path fill="#17223c" opacity="1.00" d=" M 548.70 11.80 C 559.23 11.02 569.78 10.62 580.30 9.71 C 601.88 9.19 623.48 9.25 644.99 11.10 C 655.06 11.23 664.96 13.16 674.97 14.07 C 716.97 19.58 758.45 29.34 798.32 43.68 C 836.05 57.29 872.71 74.12 906.98 95.02 C 955.73 124.60 1000.24 161.23 1038.39 203.62 C 1095.27 266.71 1139.37 341.80 1163.73 423.34 C 1185.06 490.06 1193.24 560.77 1189.59 630.66 C 1187.81 679.77 1178.26 728.33 1164.45 775.41 C 1163.85 777.37 1163.03 779.27 1162.12 781.11 C 1163.94 769.25 1169.21 758.19 1170.85 746.30 C 1165.41 741.99 1161.64 736.09 1156.81 731.20 C 1147.87 722.47 1139.31 713.35 1129.88 705.14 C 1093.19 668.82 1056.81 632.20 1020.28 595.71 C 1014.70 589.60 1007.99 584.70 1002.35 578.65 C 996.69 572.63 989.63 568.07 984.42 561.61 C 977.48 553.23 969.43 545.89 961.29 538.71 C 955.30 532.31 948.29 527.00 942.24 520.67 C 940.68 518.90 938.26 518.79 936.10 518.53 C 936.66 548.68 936.18 578.84 936.34 608.99 C 936.35 706.66 936.33 804.33 936.35 902.00 C 936.27 906.57 936.82 911.21 935.95 915.74 C 935.14 917.69 932.70 917.13 931.05 917.39 C 886.70 917.31 842.35 917.31 798.00 917.39 C 796.32 917.14 793.99 917.60 793.05 915.81 C 792.14 910.59 792.79 905.26 792.67 900.00 C 792.63 850.63 792.73 801.27 792.63 751.90 C 773.19 771.04 754.04 790.46 734.78 809.78 C 719.26 824.93 704.46 840.79 688.98 855.98 C 671.50 873.50 653.94 890.94 636.50 908.49 C 633.63 911.30 631.00 914.41 627.71 916.74 C 625.19 918.55 621.94 918.34 619.01 918.43 C 605.65 918.24 592.29 918.34 578.93 918.41 C 576.68 918.53 574.42 917.99 572.97 916.16 C 588.65 916.39 604.34 916.08 620.02 916.35 C 622.31 916.20 625.10 916.61 626.83 914.73 C 640.72 900.00 655.30 885.93 669.60 871.59 C 675.68 865.31 682.77 860.05 688.33 853.26 C 696.50 844.46 704.89 835.79 714.26 828.25 C 731.99 810.65 749.52 792.85 767.16 775.16 C 773.94 768.27 781.01 761.67 787.60 754.60 C 789.66 752.35 792.09 750.50 794.63 748.83 C 794.86 802.89 794.38 856.96 794.60 911.02 C 794.34 913.65 796.16 916.02 798.96 915.45 C 838.64 915.47 878.32 915.40 918.00 915.43 C 923.19 915.20 928.60 916.25 933.63 914.63 C 935.27 910.31 934.27 905.51 934.49 901.00 C 934.43 786.00 934.50 671.00 934.48 556.00 C 934.33 543.47 934.83 530.92 934.27 518.40 C 929.05 519.33 924.17 521.43 919.11 522.89 C 902.77 527.42 886.36 531.64 869.89 535.64 C 853.00 540.41 836.06 545.09 819.66 551.38 C 806.11 556.45 792.29 560.91 779.20 567.10 C 769.88 572.20 760.65 577.62 752.53 584.52 C 743.04 591.97 735.36 601.36 726.26 609.24 C 720.87 613.86 716.50 619.49 711.48 624.48 C 706.00 630.03 700.29 635.36 695.19 641.27 C 688.80 648.52 681.58 654.95 674.47 661.47 C 656.90 679.23 639.24 696.91 621.57 714.58 C 616.72 719.37 613.27 725.46 607.73 729.60 C 605.27 731.31 603.35 734.63 600.11 734.71 C 597.47 734.20 595.81 731.77 593.94 730.06 C 585.33 721.00 575.97 712.63 568.19 702.81 C 530.80 665.53 493.63 628.03 456.19 590.80 C 454.05 588.82 451.62 587.22 449.28 585.51 C 445.48 582.75 442.30 579.24 438.55 576.42 C 431.50 571.06 423.91 566.23 415.53 563.23 C 406.88 560.11 398.13 557.29 389.41 554.38 C 381.49 551.76 373.81 548.48 365.90 545.85 C 356.43 542.60 346.74 540.02 337.01 537.69 C 313.54 531.49 290.18 524.90 266.73 518.65 C 266.18 536.42 266.66 554.22 266.50 572.00 C 266.46 680.00 266.47 788.00 266.48 896.00 C 266.47 902.26 266.34 908.54 266.75 914.80 C 266.25 915.42 265.74 916.04 265.24 916.68 C 268.89 918.54 271.98 921.29 274.34 924.65 C 279.51 931.73 286.12 937.53 292.23 943.77 C 304.24 955.76 316.23 967.76 328.25 979.75 C 342.34 994.97 357.03 1009.63 371.75 1024.25 C 377.29 1029.72 381.85 1036.12 387.80 1041.18 C 393.77 1046.22 398.42 1052.57 404.29 1057.71 C 408.87 1061.79 412.99 1066.37 417.66 1070.36 C 421.26 1073.43 424.08 1077.26 427.23 1080.77 C 430.38 1084.30 434.32 1087.00 437.68 1090.32 C 451.54 1104.79 465.66 1119.00 479.73 1133.26 C 489.04 1142.98 499.90 1151.12 508.38 1161.63 C 512.77 1166.86 518.55 1170.92 521.90 1176.98 C 523.90 1180.17 525.81 1184.41 530.07 1184.87 C 538.02 1185.97 545.98 1187.26 554.02 1187.35 C 559.36 1187.43 564.71 1187.89 569.91 1189.19 C 558.23 1189.68 546.62 1187.67 534.99 1186.89 C 493.85 1181.78 453.00 1173.45 413.60 1160.46 C 395.11 1153.92 376.53 1147.51 358.68 1139.33 C 319.41 1121.85 282.00 1100.16 247.46 1074.56 C 228.36 1059.81 209.31 1044.86 192.18 1027.82 C 170.18 1006.37 149.21 983.75 130.91 959.03 C 81.51 894.38 45.36 819.48 26.62 740.25 C 16.80 696.85 10.45 652.54 10.14 608.00 C 9.50 589.08 10.74 570.18 11.73 551.30 C 13.28 538.27 14.30 525.18 16.29 512.20 C 21.26 480.36 27.96 448.72 38.08 418.10 C 49.37 381.16 65.43 345.81 83.89 311.94 C 104.16 274.90 129.48 240.89 156.88 208.86 C 164.86 199.54 173.62 190.95 182.19 182.19 C 200.01 163.89 219.47 147.28 239.65 131.64 C 271.18 106.93 305.74 86.30 341.66 68.65 C 398.96 41.87 460.09 22.71 522.92 14.64 C 531.47 13.39 540.12 12.93 548.70 11.80 M 548.56 247.42 C 536.96 251.76 526.20 258.04 515.98 264.97 C 491.97 282.36 473.65 307.53 464.55 335.75 C 462.04 344.66 459.14 353.68 459.36 363.04 C 457.31 378.66 458.33 394.58 461.35 410.00 C 461.00 415.47 463.26 420.41 465.10 425.40 C 468.87 440.60 477.49 453.91 486.56 466.44 C 493.02 474.39 499.41 482.65 507.91 488.55 C 512.16 493.34 517.83 496.51 523.12 500.01 C 546.91 515.57 575.57 523.66 604.00 522.53 C 617.08 523.26 629.94 520.14 642.52 516.92 C 650.91 515.04 658.63 511.11 666.38 507.51 C 673.89 503.56 681.27 499.23 687.89 493.89 C 695.57 488.00 702.22 480.90 708.89 473.91 C 720.52 460.49 729.34 444.61 734.93 427.75 C 740.41 412.86 743.20 396.88 742.57 381.00 C 743.14 366.10 740.36 351.24 736.24 336.97 C 731.28 318.47 721.22 301.65 708.83 287.18 C 697.86 275.00 685.58 263.67 671.01 255.95 C 669.71 255.28 668.26 255.07 666.87 254.78 C 651.70 245.47 634.16 240.64 616.62 238.27 C 609.80 237.17 602.87 237.61 596.00 237.52 C 579.66 237.12 563.71 241.70 548.56 247.42 M 729.97 313.93 C 732.47 321.28 735.83 328.29 738.46 335.58 C 742.06 346.05 743.62 357.06 745.17 367.98 C 745.56 376.31 745.28 384.67 745.32 393.02 C 744.07 405.51 741.79 418.07 736.77 429.66 C 731.04 442.69 725.29 456.01 716.14 467.07 C 710.15 474.71 704.41 482.74 696.69 488.77 C 689.77 494.24 683.19 500.26 675.36 504.44 C 667.55 509.36 658.91 512.66 650.66 516.74 C 618.94 528.62 583.12 528.14 551.31 516.84 C 546.63 515.10 542.38 512.43 537.91 510.26 C 533.42 508.08 529.10 505.04 523.92 505.04 C 525.28 507.60 527.28 509.72 529.67 511.36 C 534.32 514.62 538.17 518.84 542.56 522.44 C 549.08 527.88 554.45 534.54 560.92 540.03 C 565.64 543.98 568.96 549.33 573.92 553.05 C 582.41 559.85 589.08 568.61 597.58 575.42 C 601.09 578.25 603.52 582.13 606.74 585.26 C 613.37 591.63 619.53 598.52 626.72 604.28 C 635.73 614.89 646.09 624.25 655.76 634.24 C 662.13 640.92 669.88 646.12 676.04 653.01 C 677.51 654.79 679.81 653.25 681.05 652.01 C 694.13 639.11 706.79 625.77 720.22 613.23 C 728.22 605.22 735.55 596.47 744.59 589.57 C 758.95 575.64 776.45 565.33 794.89 557.75 C 803.95 554.00 813.44 551.43 822.77 548.46 C 829.74 544.99 837.19 542.74 844.55 540.27 C 859.16 536.12 873.70 531.70 888.56 528.50 C 900.99 525.85 912.84 520.73 925.49 519.13 C 928.81 517.17 932.21 515.27 936.22 515.35 C 934.83 510.72 931.07 507.51 927.79 504.22 C 914.55 491.12 901.46 477.88 888.27 464.74 C 878.38 454.62 867.98 444.99 858.53 434.47 C 856.31 432.36 853.87 430.48 851.94 428.10 C 846.98 422.07 840.50 417.52 835.45 411.58 C 833.43 409.26 831.21 407.14 828.99 405.03 C 818.23 395.13 808.19 384.48 797.75 374.26 C 789.10 366.95 781.09 358.91 773.48 350.55 C 768.41 343.61 761.00 339.02 755.27 332.73 C 749.58 326.73 742.76 321.94 736.93 316.10 C 733.64 312.12 730.97 307.53 726.62 304.55 C 725.83 308.08 728.98 310.76 729.97 313.93 Z" />
</g>
<g id="#e7e7e7ff">
<path fill="#e7e7e7" opacity="1.00" d=" M 666.87 254.78 C 668.26 255.07 669.71 255.28 671.01 255.95 C 685.58 263.67 697.86 275.00 708.83 287.18 C 721.22 301.65 731.28 318.47 736.24 336.97 C 740.36 351.24 743.14 366.10 742.57 381.00 C 743.20 396.88 740.41 412.86 734.93 427.75 C 729.34 444.61 720.52 460.49 708.89 473.91 C 702.22 480.90 695.57 488.00 687.89 493.89 C 681.27 499.23 673.89 503.56 666.38 507.51 C 658.63 511.11 650.91 515.04 642.52 516.92 C 629.94 520.14 617.08 523.26 604.00 522.53 C 575.57 523.66 546.91 515.57 523.12 500.01 C 517.83 496.51 512.16 493.34 507.91 488.55 C 508.86 488.21 509.82 487.87 510.79 487.55 C 511.68 485.65 512.43 483.36 514.63 482.63 C 520.72 479.99 527.43 479.41 533.78 477.61 C 554.82 471.72 574.37 461.47 592.59 449.56 C 607.07 439.73 620.37 427.90 630.55 413.58 C 651.98 384.16 663.40 348.15 665.83 312.01 C 667.22 299.37 666.70 286.64 666.75 273.96 C 666.89 269.20 664.83 264.18 666.60 259.60 C 668.96 258.62 671.57 260.33 673.93 260.86 C 671.50 258.93 669.22 256.81 666.87 254.78 Z" />
<path fill="#e7e7e7" opacity="1.00" d=" M 405.79 747.39 C 408.55 749.15 411.18 751.14 413.49 753.49 C 421.97 762.02 430.51 770.48 439.00 779.00 C 443.63 783.76 448.74 788.16 452.18 793.93 C 448.78 790.96 445.25 788.14 442.04 784.96 C 430.51 773.60 419.14 762.07 407.80 750.54 C 407.06 752.94 406.41 755.41 406.47 757.96 C 406.63 772.30 406.49 786.65 406.56 801.00 C 406.62 807.30 406.29 813.62 406.93 819.91 C 407.87 828.24 407.35 836.64 407.47 845.00 C 407.43 868.79 407.67 892.58 407.35 916.36 C 359.98 916.81 312.60 916.17 265.24 916.68 C 265.74 916.04 266.25 915.42 266.75 914.80 C 312.72 914.49 358.69 914.68 404.65 914.71 C 404.69 864.47 404.65 814.23 404.66 764.00 C 404.68 758.45 404.00 752.75 405.79 747.39 Z" />
</g>
<g id="#0d1323ff">
<path fill="#0d1323" opacity="1.00" d=" M 729.97 313.93 C 728.98 310.76 725.83 308.08 726.62 304.55 C 730.97 307.53 733.64 312.12 736.93 316.10 C 742.76 321.94 749.58 326.73 755.27 332.73 C 761.00 339.02 768.41 343.61 773.48 350.55 C 781.09 358.91 789.10 366.95 797.75 374.26 C 808.19 384.48 818.23 395.13 828.99 405.03 C 831.21 407.14 833.43 409.26 835.45 411.58 C 840.50 417.52 846.98 422.07 851.94 428.10 C 853.87 430.48 856.31 432.36 858.53 434.47 C 867.98 444.99 878.38 454.62 888.27 464.74 C 901.46 477.88 914.55 491.12 927.79 504.22 C 931.07 507.51 934.83 510.72 936.22 515.35 C 932.21 515.27 928.81 517.17 925.49 519.13 C 912.84 520.73 900.99 525.85 888.56 528.50 C 873.70 531.70 859.16 536.12 844.55 540.27 C 837.19 542.74 829.74 544.99 822.77 548.46 C 813.44 551.43 803.95 554.00 794.89 557.75 C 776.45 565.33 758.95 575.64 744.59 589.57 C 735.55 596.47 728.22 605.22 720.22 613.23 C 706.79 625.77 694.13 639.11 681.05 652.01 C 679.81 653.25 677.51 654.79 676.04 653.01 C 669.88 646.12 662.13 640.92 655.76 634.24 C 646.09 624.25 635.73 614.89 626.72 604.28 C 619.53 598.52 613.37 591.63 606.74 585.26 C 603.52 582.13 601.09 578.25 597.58 575.42 C 589.08 568.61 582.41 559.85 573.92 553.05 C 568.96 549.33 565.64 543.98 560.92 540.03 C 554.45 534.54 549.08 527.88 542.56 522.44 C 538.17 518.84 534.32 514.62 529.67 511.36 C 527.28 509.72 525.28 507.60 523.92 505.04 C 529.10 505.04 533.42 508.08 537.91 510.26 C 542.38 512.43 546.63 515.10 551.31 516.84 C 583.12 528.14 618.94 528.62 650.66 516.74 C 658.91 512.66 667.55 509.36 675.36 504.44 C 683.19 500.26 689.77 494.24 696.69 488.77 C 704.41 482.74 710.15 474.71 716.14 467.07 C 725.29 456.01 731.04 442.69 736.77 429.66 C 741.79 418.07 744.07 405.51 745.32 393.02 C 745.28 384.67 745.56 376.31 745.17 367.98 C 743.62 357.06 742.06 346.05 738.46 335.58 C 735.83 328.29 732.47 321.28 729.97 313.93 Z" />
<path fill="#0d1323" opacity="1.00" d=" M 936.10 518.53 C 938.26 518.79 940.68 518.90 942.24 520.67 C 948.29 527.00 955.30 532.31 961.29 538.71 C 969.43 545.89 977.48 553.23 984.42 561.61 C 989.63 568.07 996.69 572.63 1002.35 578.65 C 1007.99 584.70 1014.70 589.60 1020.28 595.71 C 1056.81 632.20 1093.19 668.82 1129.88 705.14 C 1139.31 713.35 1147.87 722.47 1156.81 731.20 C 1161.64 736.09 1165.41 741.99 1170.85 746.30 C 1169.21 758.19 1163.94 769.25 1162.12 781.11 C 1160.52 788.60 1157.37 795.65 1154.92 802.88 C 1141.39 841.62 1122.93 878.52 1101.37 913.39 C 1090.93 929.44 1080.37 945.44 1068.44 960.44 C 1054.03 978.87 1038.81 996.71 1022.21 1013.22 C 1011.73 1023.75 1001.42 1034.47 990.09 1044.11 C 961.28 1068.89 930.81 1091.97 897.64 1110.64 C 861.77 1131.48 823.74 1148.72 784.14 1161.17 C 725.58 1180.88 663.73 1190.23 602.00 1190.37 C 591.30 1190.20 580.52 1190.56 569.91 1189.19 C 564.71 1187.89 559.36 1187.43 554.02 1187.35 C 545.98 1187.26 538.02 1185.97 530.07 1184.87 C 525.81 1184.41 523.90 1180.17 521.90 1176.98 C 518.55 1170.92 512.77 1166.86 508.38 1161.63 C 499.90 1151.12 489.04 1142.98 479.73 1133.26 C 465.66 1119.00 451.54 1104.79 437.68 1090.32 C 434.32 1087.00 430.38 1084.30 427.23 1080.77 C 424.08 1077.26 421.26 1073.43 417.66 1070.36 C 412.99 1066.37 408.87 1061.79 404.29 1057.71 C 398.42 1052.57 393.77 1046.22 387.80 1041.18 C 381.85 1036.12 377.29 1029.72 371.75 1024.25 C 357.03 1009.63 342.34 994.97 328.25 979.75 C 316.23 967.76 304.24 955.76 292.23 943.77 C 286.12 937.53 279.51 931.73 274.34 924.65 C 271.98 921.29 268.89 918.54 265.24 916.68 C 312.60 916.17 359.98 916.81 407.35 916.36 C 407.67 892.58 407.43 868.79 407.47 845.00 C 407.35 836.64 407.87 828.24 406.93 819.91 C 406.29 813.62 406.62 807.30 406.56 801.00 C 406.49 786.65 406.63 772.30 406.47 757.96 C 406.41 755.41 407.06 752.94 407.80 750.54 C 419.14 762.07 430.51 773.60 442.04 784.96 C 445.25 788.14 448.78 790.96 452.18 793.93 C 461.50 804.54 472.02 814.03 481.84 824.16 C 505.14 847.53 528.51 870.83 551.80 894.20 C 558.77 901.60 566.50 908.30 572.97 916.16 C 574.42 917.99 576.68 918.53 578.93 918.41 C 592.29 918.34 605.65 918.24 619.01 918.43 C 621.94 918.34 625.19 918.55 627.71 916.74 C 631.00 914.41 633.63 911.30 636.50 908.49 C 653.94 890.94 671.50 873.50 688.98 855.98 C 704.46 840.79 719.26 824.93 734.78 809.78 C 754.04 790.46 773.19 771.04 792.63 751.90 C 792.73 801.27 792.63 850.63 792.67 900.00 C 792.79 905.26 792.14 910.59 793.05 915.81 C 793.99 917.60 796.32 917.14 798.00 917.39 C 842.35 917.31 886.70 917.31 931.05 917.39 C 932.70 917.13 935.14 917.69 935.95 915.74 C 936.82 911.21 936.27 906.57 936.35 902.00 C 936.33 804.33 936.35 706.66 936.34 608.99 C 936.18 578.84 936.66 548.68 936.10 518.53 Z" />
</g>
</svg>
